<?xml version="1.0" encoding="UTF-8" standalone="no"?>
<svg width="309px" height="225px" viewBox="0 0 309 225" version="1.1" xmlns="http://www.w3.org/2000/svg" xmlns:xlink="http://www.w3.org/1999/xlink">
    <!-- Generator: Sketch 45.2 (43514) - http://www.bohemiancoding.com/sketch -->
    <title>people-hill@svg</title>
    <desc>Created with Sketch.</desc>
    <defs>
        <polygon id="path-1" points="0.140220955 0.0925714286 1.92081538 0.0925714286 1.92081538 7.87034286 0.140220955 7.87034286 0.140220955 0.0925714286"></polygon>
    </defs>
    <g id="FRE" stroke="none" stroke-width="1" fill="none" fill-rule="evenodd">
        <g id="FRE-2" transform="translate(-29.000000, -180.000000)">
            <g id="give-get" transform="translate(-15.000000, 180.000000)">
                <g id="people-hill" transform="translate(44.000000, 0.000000)">
                    <g id="people">
                        <path d="M29.4896989,173.311225 C25.5987553,153.856027 31.1980016,139.415636 54.2707183,139.044592 C74.8595038,138.713481 75.5880413,147.276488 86.3572293,163.950677 C111.431995,202.774359 90.6900501,220.68057 70.5687447,224.690408 C50.447668,228.700702 33.3806424,192.766422 29.4896989,173.311225" id="Fill-2" fill="#8066AB"></path>
                        <path d="M108.818313,85.7909711 L96.7625829,101.15943 L66.807507,110.767112 L59.8833146,96.9314376 L90.9790877,91.8855958 L106.533718,75.0644498 C110.78653,73.0709407 115.853146,74.8962703 117.850166,79.1418332 C119.847187,83.3871678 113.071125,83.797462 108.818313,85.7909711" id="Fill-4" fill="#F4BD7A"></path>
                        <polygon id="Fill-6" fill="#E6E7EA" points="78.9127966 110.45072 60.1703862 112.392429 58.3109811 94.5076673 77.0533915 92.5659584"></polygon>
                        <path d="M68.191111,106.743218 C66.4551481,98.0636029 60.8328136,94.4512804 53.5613829,93.8803372 C53.6980837,97.6396171 50.5551084,99.4072135 46.9940298,100.116899 C43.2594464,100.86127 37.6352831,100.735079 36.3098798,96.7533088 C28.5028471,99.9167723 23.6291666,105.621869 25.553036,115.240961 C28.0243944,127.59839 32.4280801,149.649075 53.7550042,145.407619 C83.7793449,139.435991 70.662698,119.100647 68.191111,106.743218" id="Fill-8" fill="#E6E7EA"></path>
                        <polygon id="Fill-10" fill="#F4BD7A" points="58.3927273 101.288154 38.1895843 105.31465 34.1559965 85.1470284 54.3591395 81.1205325"></polygon>
                        <path d="M17.7616394,77.9064554 C20.4014734,91.1054665 32.0562448,93.6489249 45.2785034,91.0137323 C58.500762,88.3787677 68.2835555,81.5625913 65.6437214,68.3635801 L63.2338556,56.3133012 C60.5940215,43.1142901 47.7352316,34.5505984 34.512973,37.1857911 C21.2904858,39.8209838 12.7117109,52.6571653 15.3515449,65.8561765 L17.7616394,77.9064554 Z" id="Fill-12" fill="#E1AC70"></path>
                        <path d="M59.069762,61.086998 C59.7274345,64.3755122 62.0147726,66.6916886 64.1786684,66.2601724 C66.3425643,65.8291126 67.5634989,62.8137475 66.9058264,59.5252333 C66.2481538,56.2369473 63.9608158,53.9207708 61.7969199,54.3520588 C59.6330241,54.7831187 58.4120894,57.7984838 59.069762,61.086998" id="Fill-14" fill="#F4BD7A"></path>
                        <path d="M17.5208357,76.7024087 C20.1606697,89.9014199 31.8154411,92.4448783 45.0376997,89.8096856 C58.2599583,87.1747211 68.0427518,80.3585446 65.4029177,67.1595335 L62.8725815,54.5072769 C60.2327474,41.3082657 47.3739575,32.744574 34.1516989,35.3797667 C20.9294402,38.0147312 12.3506653,50.8509128 14.9902708,64.0501521 L17.5208357,76.7024087 Z" id="Fill-16" fill="#F4BD7A"></path>
                        <path d="M33.8849037,63.7322997 C34.3103221,65.8593027 32.9277695,67.9276597 30.7970202,68.3523301 C28.6664995,68.7770005 26.5942709,67.397107 26.1688525,65.270104 C25.7434342,63.1431009 27.1259867,61.0745157 29.256736,60.6498453 C31.3872568,60.2251749 33.4594853,61.6052967 33.8849037,63.7322997" id="Fill-18" fill="#555555"></path>
                        <path d="M60.4223912,58.4433849 C60.8478095,60.5703879 59.465257,62.6389731 57.3345077,63.0636435 C55.2039869,63.4880857 53.1317583,62.1081922 52.70634,59.9811891 C52.2809216,57.8541861 53.6634741,55.7858291 55.7942235,55.3611587 C57.9247442,54.9364883 59.9969728,56.3163818 60.4223912,58.4433849" id="Fill-20" fill="#555555"></path>
                        <path d="M55.8814788,75.3341303 C56.2588919,77.2208443 53.8979457,82.4120461 49.8657295,83.215748 C45.8335132,84.0192216 41.6568239,80.1310117 41.2796395,78.2442977 C40.9022264,76.3573555 44.2294506,75.9986334 48.2616668,75.1949315 C52.2938831,74.3912297 55.5040658,73.4474163 55.8814788,75.3341303" id="Fill-22" fill="#DC4350"></path>
                        <path d="M31.3405773,73.9508139 C31.7865694,76.180961 30.3372666,78.3497236 28.1031916,78.7949315 C25.8691166,79.2401395 23.6965341,77.7931567 23.250542,75.5632378 C22.80455,73.3330908 24.2540813,71.1643281 26.4879277,70.7191202 C28.7220027,70.2739123 30.8945853,71.720895 31.3405773,73.9508139" id="Fill-24" fill="#EA5765"></path>
                        <path d="M66.8179081,66.2542622 C67.2639002,68.4844092 65.8143688,70.6531719 63.5805224,71.0983798 C61.3464474,71.5435877 59.1738649,70.096605 58.7278728,67.8666861 C58.2818808,65.636539 59.7314121,63.4677764 61.9652585,63.0225685 C64.1993335,62.5773605 66.3719161,64.0243433 66.8179081,66.2542622" id="Fill-26" fill="#EA5765"></path>
                        <path d="M68.7481096,106.006149 C67.0121467,97.326534 63.4270655,93.3080248 56.4889287,92.6709052 C56.6542041,96.4244802 51.8648757,98.5199924 48.4759305,99.1954488 C44.922167,99.9037652 37.74949,100.086321 36.4487751,96.0995309 C29.0347001,99.1847236 26.2501643,104.473593 28.1738051,114.092685 C30.6453921,126.449886 34.7791052,146.790479 55.3441167,144.464719 C81.8604132,141.46624 71.2196966,118.363578 68.7481096,106.006149" id="Fill-28" fill="#F4F6FB"></path>
                        <g id="Group-32" transform="translate(0.000000, 30.578093)" fill="#895D3B">
                            <path d="M32.1467234,3.74049949 C21.2136316,2.5805857 -0.188729391,-10.68232 0.00123442189,21.623892 C0.0881011474,36.3956212 16.2165089,52.3014782 20.9075407,55.3312196 C25.5985725,58.3611891 9.47336505,30.7957226 18.7875354,27.4786841 C24.6434957,25.3934407 32.1467234,3.74049949 32.1467234,3.74049949" id="Fill-30"></path>
                        </g>
                        <path d="M21.4884962,41.8681643 C19.8542588,52.4805882 37.6868545,57.6254665 44.9621714,56.7033316 C72.7074035,53.1866227 59.629618,21.1070081 34.2350452,26.3901724 C29.162257,27.445573 23.2338316,30.5355578 21.4884962,41.8681643" id="Fill-33" fill="#895D3B"></path>
                        <path d="M14.0296848,74.9659838 C15.2897095,78.0744523 18.2365489,81.1153753 19.7740899,77.8941785 C20.7232232,75.9056897 22.4562144,73.8781795 21.1961897,70.769711 C19.9359364,67.6614706 17.2563265,65.8112677 15.2108437,66.6375609 C13.1655895,67.463854 12.7696601,71.8575152 14.0296848,74.9659838" id="Fill-35" fill="#F4BD7A"></path>
                        <path d="M16.3174115,77.2163032 C16.5674962,77.8333418 17.2713453,78.1311359 17.889242,77.8814909 C18.5073673,77.6318458 18.805686,76.9292343 18.5556012,76.3121957 C18.3055165,75.6951572 17.6016674,75.3975913 16.9835421,75.6472363 C16.3656454,75.8968813 16.0673267,76.5992647 16.3174115,77.2163032" id="Fill-37" fill="#8066AB"></path>
                        <path d="M56.4888144,92.6708139 C58.8833643,95.7651344 57.670659,104.604257 54.1646723,104.708086 C50.6586855,104.811914 36.1059944,105.140743 36.1894322,96.1512399" id="Stroke-39" stroke="#FFCF46"></path>
                        <path d="M55.0360827,102.654995 C55.5993448,102.89323 56.012419,103.3357 56.2284428,103.85895 C56.4481242,104.3911 56.4638974,105.00677 56.2211277,105.578398 C55.7397032,106.712297 54.4284728,107.241937 53.2925761,106.761359 C52.440825,106.40104 51.9294543,105.574746 51.9299115,104.706009 C51.9301401,104.416202 51.9870606,104.121602 52.1075311,103.837956 C52.5889556,102.704057 53.900186,102.174417 55.0360827,102.654995" id="Fill-41" fill="#FFCF46"></path>
                        <path d="M55.0359913,102.655109 C55.8877424,103.015657 56.3991131,103.841722 56.3986559,104.710459 C56.182632,104.187208 55.7695579,103.744739 55.2062958,103.506504 C54.070399,103.025925 52.7591687,103.555565 52.2777441,104.689465 C52.1572737,104.973111 52.1003531,105.26771 52.1001245,105.557518 C51.8804432,105.025368 51.8648986,104.409698 52.1074396,103.83807 C52.5888642,102.704171 53.9000945,102.174531 55.0359913,102.655109" id="Fill-43" fill="#8066AB"></path>
                        <path d="M92.0415364,120.3266 L64.8636811,139.584866 L24.8828135,117.093537 L33.8026546,104.15444 L66.5507244,128.679668 L93.8188753,108.229085 C101.593676,109.675611 108.573189,109.308674 107.200923,111.74625 C106.05131,113.787908 97.1502142,119.77163 92.0415364,120.3266" id="Fill-45" fill="#F4BD7A"></path>
                        <path d="M33.5143714,126.437495 L20.6939857,115.822104 C19.3493802,114.708971 19.1635312,112.718428 20.2786256,111.376415 L30.1213114,99.5308266 C31.2366344,98.1885852 33.2304544,98.0030629 34.5750598,99.1161968 L47.3954455,109.731587 L33.5143714,126.437495 Z" id="Fill-47" fill="#E6E7EA"></path>
                        <path d="M229.828203,116.692873 C232.269387,106.653218 242.782318,108.951595 255.679969,112.076722 C268.577621,115.202077 278.976025,117.970535 276.534841,128.01019 C276.531948,128.022092 276.529039,128.033988 276.526117,128.045877 L256.655094,209.76515 L236.02859,204.767229 L251.517779,141.068006 C250.603632,140.93223 249.683631,140.753374 248.761263,140.529866 C247.317346,140.180002 245.928839,139.735548 244.604858,139.207983 L229.073149,203.081897 L209.699583,198.387475 L229.579262,116.632606 L229.828191,116.692925 Z" id="Combined-Shape" fill="#383737"></path>
                        <path d="M233.890983,116.352908 C236.332167,106.313253 240.580635,107.093679 253.478287,110.219034 C266.375938,113.344161 276.774342,116.112619 274.333159,126.152274 L254.453526,207.907279 L234.453376,203.061108 L250.0278,139.011536 C248.925174,138.773308 247.81731,138.453425 246.711597,138.046696 C245.227322,137.500704 243.879083,136.916906 242.659936,136.294754 L226.871626,201.223935 L210.003708,197.136739 L229.883387,115.381871 L233.890977,116.352934 Z" id="Combined-Shape" fill="#4A4A4A"></path>
                        <path d="M196.7713,85.5567748 C196.7713,85.5567748 221.35824,92.1093864 229.946616,91.5571552 C238.71787,90.993286 256.8593,82.9010446 256.8593,82.9010446 L251.689586,69.9357049 L227.877817,79.6862373 L198.292382,73.2335751 C191.271264,72.9554057 189.154002,76.8949594 188.570395,79.7601724 C187.715901,83.9539351 192.455395,84.0700862 196.7713,85.5567748" id="Fill-61" fill="#E8A75B"></path>
                        <polygon id="Fill-63" fill="#DC4350" points="241.8122 92.7505908 255.59772 86.2187449 247.824063 69.8704184 234.038771 76.4022642"></polygon>
                        <path d="M238.660926,82.1276014 C240.853168,73.1116278 247.751758,69.7767901 256.639824,69.7936765 C256.441631,73.7510294 260.266738,75.8848783 264.611446,76.9375406 C269.167606,78.0417748 276.03945,78.3877181 277.691289,74.2968712 C287.202738,78.3019168 293.109904,84.7406592 290.68015,94.7321653 C287.558892,107.568347 281.997135,130.474305 255.977808,124.178641 C219.347481,115.315786 235.539668,94.963783 238.660926,82.1276014" id="Fill-65" fill="#DC4350"></path>
                        <polygon id="Fill-67" fill="#E8A75B" points="252.91667 77.7460117 273.902528 82.8311029 278.996576 61.8819143 258.010718 56.7970512"></polygon>
                        <path d="M296.47919,55.0030756 C293.145337,68.7134711 280.829235,70.8767571 267.094692,67.5487652 C253.360148,64.2207733 243.407964,56.661823 246.741818,42.9514275 L249.785582,30.434034 C253.119436,16.7236384 266.956162,8.30713235 280.690706,11.6351242 C294.425249,14.9631161 302.856808,28.7755147 299.522955,42.4859102 L296.47919,55.0030756 Z" id="Fill-69" fill="#DD9D58"></path>
                        <path d="M253.940875,35.6127535 C253.110383,39.0286004 250.614794,41.3559584 248.367231,40.8114858 C246.119441,40.266785 244.970742,37.0563134 245.801234,33.6404665 C246.631726,30.2246197 249.127315,27.8970335 251.374877,28.4417343 C253.622668,28.9864351 254.771366,32.1969067 253.940875,35.6127535" id="Fill-71" fill="#E8A75B"></path>
                        <path d="M296.783338,53.7523403 C293.449485,67.462964 281.133383,69.6260218 267.398839,66.2980299 C253.664296,62.970038 243.712112,55.4110877 247.045966,41.7006922 L250.241747,28.5580451 C253.5756,14.8476496 267.412327,6.43114351 281.14687,9.7591354 C294.881414,13.0871273 303.312973,26.8995259 299.979119,40.6099214 L296.783338,53.7523403 Z" id="Fill-73" fill="#E8A75B"></path>
                        <path d="M280.203863,39.4652282 C279.666661,41.6746095 281.02544,43.9004209 283.238712,44.4366785 C285.451757,44.9729361 287.681488,43.6167748 288.218919,41.4073935 C288.756121,39.1980122 287.397343,36.9722008 285.18407,36.4359432 C282.970797,35.8996856 280.741065,37.2558469 280.203863,39.4652282" id="Fill-75" fill="#555555"></path>
                        <path d="M303.503805,48.0273225 C302.673314,51.4431694 300.177724,53.7705274 297.930162,53.2260548 C295.682371,52.681354 294.533673,49.4708824 295.364164,46.0550355 C296.194656,42.6391886 298.690246,40.3116024 300.937808,40.8563032 C303.185599,41.4010041 304.334297,44.6114757 303.503805,48.0273225" id="Fill-77" fill="#E8A75B"></path>
                        <path d="M252.638217,32.7858545 C252.101015,34.9952358 253.459565,37.2210472 255.673066,37.7573048 C257.886339,38.2935624 260.115842,36.9374011 260.653272,34.7280198 C261.190474,32.5186384 259.831696,30.2928271 257.618423,29.7565695 C255.405151,29.2203119 253.175419,30.5764731 252.638217,32.7858545" id="Fill-79" fill="#555555"></path>
                        <path d="M256.665838,50.6712779 C256.189214,52.6310142 259.198232,55.0425761 263.386808,56.0575862 C267.575156,57.0723682 271.35683,56.3063185 271.833454,54.346354 C272.310078,52.3866176 268.840896,51.8677028 264.652319,50.8526927 C260.463971,49.8379108 257.142462,48.7113134 256.665838,50.6712779" id="Fill-81" fill="#DC4350"></path>
                        <path d="M281.345429,52.0011055 C280.782167,54.3175101 282.206781,56.6512576 284.527266,57.2135294 C286.847751,57.7758012 289.185608,56.3536917 289.748871,54.037287 C290.312133,51.7208824 288.887518,49.3871349 286.567034,48.8248631 C284.246549,48.2625913 281.908691,49.6847008 281.345429,52.0011055" id="Fill-83" fill="#EA5765"></path>
                        <path d="M245.299053,41.9423732 C244.735791,44.2587779 246.160405,46.5925254 248.48089,47.1547972 C250.801374,47.717069 253.139232,46.2951876 253.702494,43.9785548 C254.265756,41.6621501 252.841142,39.3284026 250.520657,38.7661308 C248.200173,38.203859 245.862315,39.6259686 245.299053,41.9423732" id="Fill-85" fill="#EA5765"></path>
                        <path d="M236.933627,81.0469168 C239.125869,72.0309432 246.024459,68.6961055 254.912525,68.7129919 C254.714332,72.6703448 258.539439,74.8041937 262.884147,75.856856 C267.440307,76.9610903 274.312151,77.3070335 275.964219,73.2161866 C285.475668,77.2212323 291.382605,83.6599746 288.95308,93.6514807 C285.831593,106.487662 280.10799,130.026176 254.250509,123.097956 C226.526765,115.669762 233.812369,93.8830984 236.933627,81.0469168" id="Fill-87" fill="#EA5765"></path>
                        <path d="M288.464569,8.22126268 C299.965038,7.4762069 308.706116,17.9820639 308.748864,25.4972008 C308.79184,33.0123377 309.281494,41.0771957 304.237738,44.0489757 C299.19421,47.0207556 293.582162,37.7147465 291.639091,31.5048834 C289.69579,25.2950203 288.464569,8.22126268 288.464569,8.22126268" id="Fill-89" fill="#3C3B3D"></path>
                        <path d="M294.129742,17.0987906 C295.383824,28.2837551 276.485282,32.9060674 268.905246,31.6274924 C239.998285,26.7523403 243.741098,1.35769016 243.741098,1.35769016 C243.741098,1.35769016 254.599896,4.77308063 258.358025,4.89950051 C264.238902,5.09688895 267.497319,3.32541329 281.447201,0.340626268 C286.758186,-0.796011663 292.790395,5.15462221 294.129742,17.0987906" id="Fill-91" fill="#3C3B3D"></path>
                        <path d="M210.63324,115.6016 C210.63324,115.6016 240.566142,117.938314 250.411343,115.458522 C260.466166,112.925789 286.552929,96.2128068 286.552929,96.2128068 L277.768646,82.2778676 L245.460168,102.12944 L209.749714,100.978882 C201.544238,102.160018 199.93446,107.183725 199.872967,110.632888 C199.7829,115.68124 205.30671,114.800865 210.63324,115.6016" id="Fill-93" fill="#E8A75B"></path>
                        <path d="M277.109853,105.628212 L291.013787,95.046823 C292.459432,93.9466962 292.737863,91.8847287 291.635799,90.4413971 L281.809343,77.5748656 C280.70705,76.131534 278.641451,75.8535928 277.195806,76.9539478 L263.291872,87.535109 L277.109853,105.628212 Z" id="Fill-95" fill="#DC4350"></path>
                        <polygon id="Fill-97" fill="#3C3B3D" points="224.651838 101.459095 225.598685 116.723496 220.678371 116.511275 219.471609 101.165865"></polygon>
                        <path d="M217.517794,109.200441 C216.890525,111.780183 218.476985,114.379092 221.061271,115.005259 C223.645556,115.631653 226.249271,114.047982 226.876541,111.46824 C227.50381,108.888271 225.917349,106.289361 223.333064,105.663195 C220.74855,105.037028 218.145063,106.6207 217.517794,109.200441" id="Fill-99" fill="#FFFFFF"></path>
                        <path d="M217.517794,109.200441 C216.890525,111.780183 218.476985,114.379092 221.061271,115.005259 C223.645556,115.631653 226.249271,114.047982 226.876541,111.46824 C227.50381,108.888271 225.917349,106.289361 223.333064,105.663195 C220.74855,105.037028 218.145063,106.6207 217.517794,109.200441 Z" id="Stroke-101" stroke="#A8B0BC"></path>
                        <path d="M137.207616,81.149536 C131.281248,78.9410674 112.987116,75.463608 112.987116,75.463608 C110.960606,75.463608 109.391519,76.6607175 108.122808,78.052249 C106.018575,80.3599823 98.4481402,85.9591962 98.4481402,85.9591962 L102.904175,92.5775279 L106.996512,91.3863514 L107.128183,93.4887094 L132.983379,101.085996 L132.983379,114.113862 L143.066319,104.048649 L143.066319,86.9981668 C143.066319,83.7680705 139.148173,81.8726851 137.207616,81.149536" id="Fill-103" fill="#E6E7EA"></path>
                        <path d="M132.983493,114.113976 L97.0453569,103.554037 L97.0453569,89.7525913 C97.0453569,86.5224949 99.6685034,83.9041886 102.904289,83.9041886 C102.904289,83.9041886 121.198193,89.0063945 127.124561,91.2148631 C129.065118,91.9380122 132.983493,93.8331694 132.983493,97.0632657 L132.983493,114.113976 Z" id="Fill-105" fill="#CCD1D8"></path>
                        <polygon id="Fill-109" fill="#3C3B3D" points="134.74691 85.7653448 110.594532 79.2095385 113.414043 76.8641531 137.566193 83.4199594"></polygon>
                        <polygon id="Fill-111" fill="#3C3B3D" points="130.684999 89.5404843 106.532621 82.984678 109.352132 80.6392926 133.504282 87.1950989"></polygon>
                        <polygon id="Fill-113" fill="#3C3B3D" points="141.210709 97.2341379 137.566193 100.457845 137.566193 99.3832759 141.210709 96.159569"></polygon>
                        <polygon id="Fill-115" fill="#555555" points="140.758613 96.159569 141.210778 96.159569 137.566261 99.3832759 137.566261 100.457845 137.23251 100.356526 137.23251 99.1555375"></polygon>
                        <path d="M100.214758,94.3813844 L105.707478,91.5401318 L109.57259,97.8348834 C109.57259,97.8348834 118.421795,97.1233722 118.523521,97.8348834 C118.625246,98.5461663 121.374349,104.638509 121.374349,104.638509 L129.814138,106.466121 L117.913396,107.481587 L115.631544,101.355015 L103.774694,102.055117 L100.214758,94.3813844 Z" id="Fill-117" fill="#A8B0BC"></path>
                        <path d="M100.214758,94.3813844 L106.521054,89.9156136 L110.386394,96.2101369 C110.386394,96.2101369 119.235599,95.4986258 119.337325,96.2101369 C119.43905,96.9216481 122.188153,103.013991 122.188153,103.013991 L129.814138,106.466121 L118.726972,105.857069 L116.445348,99.7302688 L104.588498,100.430598 L100.214758,94.3813844 Z" id="Fill-119" fill="#E6E7EA"></path>
                        <path d="M100.214758,94.3813844 L106.521054,90.7279868 L110.386394,97.0225101 C110.386394,97.0225101 119.235599,96.3112272 119.337325,97.0225101 C119.43905,97.7340213 122.188153,103.826136 122.188153,103.826136 L129.814138,106.466121 L118.726972,106.669214 L116.445348,100.542642 L104.588498,101.242743 L100.214758,94.3813844 Z" id="Fill-121" fill="#CCD1D8"></path>
                    </g>
                    <g id="catus" transform="translate(174.000000, 34.000000)">
                        <path d="M3.67736808,41.1011136 L0,30.3146251 C0,30.3146251 5.66193584,26 18.9998555,26 C31.871005,26 38,30.3146251 38,30.3146251 L32.4838756,42 L3.67736808,41.1011136 Z" id="Fill-1" fill="#DBDFE3"></path>
                        <path d="M8.71869758,38 L2,32.6088931 C2,32.6088931 6.16405415,29 19.6606726,29 C32.6849671,29 38,32.4533337 38,32.4533337 L32.2418893,37.0151142 L8.71869758,38 Z" id="Fill-3" fill="#716558"></path>
                        <path d="M8.63721828,10.0951887 C7.79161116,10.0677247 7.01472936,9.42134402 6.18807058,9.96192056 C6.0868624,10.0281044 5.98475191,10.1547692 6.00189565,10.2859363 C6.06836521,10.8003995 6.69441224,11.0442742 7.174136,10.9933982 C7.71281014,10.936219 7.68649301,10.4379641 7.39685415,10.1178503 C7.43339737,10.2063956 7.47009097,10.2947908 7.50678458,10.3831861 C7.50167154,10.3336607 7.98244798,10.0707262 8.05779018,9.97947954 C8.14937381,9.86857281 8.20306076,9.71414381 8.18095437,9.56931972 C8.13238046,9.25145712 7.699426,9.02108927 7.40587717,9.00172937 C6.64087567,8.95145365 6.4357524,10.0126465 7.19909968,10.1951399 C7.66949966,10.3076974 7.87011142,9.5843274 7.3991099,9.47161974 C7.36001016,9.6560641 7.40888484,9.7936845 7.54573394,9.88448094 C7.51355184,9.76276868 7.48121936,9.64105642 7.44918765,9.51949423 C7.42963778,9.61374245 7.08631196,9.76637052 7.00525519,9.83885761 C6.91096466,9.92305068 6.81817796,10.0132468 6.77682247,10.1372102 C6.74118155,10.2437647 6.73095546,10.3728308 6.76840098,10.4829871 C6.78358973,10.5275599 6.91682962,10.7901943 6.89156517,10.66458 C6.92359688,10.5428677 6.95592936,10.4211555 6.98811146,10.2995933 C7.02209816,10.2676269 6.66974932,10.1125976 6.65350789,10.0972898 L6.76358871,10.3626255 C6.76043065,10.3371125 6.75697183,10.3114494 6.75381377,10.2859363 C6.69155495,10.3938415 6.62944651,10.5018968 6.56748846,10.6099521 C6.92404803,10.3767328 7.26511809,10.531612 7.60979736,10.6677316 C7.94169402,10.7988987 8.28186178,10.8340167 8.63721828,10.8455726 C9.12115279,10.8611806 9.12070164,10.1107967 8.63721828,10.0951887" id="Fill-5" fill="#FFCF46"></path>
                        <path d="M8.9156597,8.70222625 C8.65316004,8.43712168 8.36009042,8.22891591 8.01090415,8.0410229 C7.75787686,7.90471968 7.38156515,8.13243031 7.48389553,8.36683492 C7.62454598,8.68872288 7.76519643,9.01049543 7.90584688,9.33238339 C8.02123766,9.21062226 8.13648491,9.08886112 8.25187569,8.96709999 C7.74309421,8.94320942 7.10514396,8.53787757 6.65176154,8.92982146 C6.53522259,9.03034653 6.5235974,9.15949412 6.59550136,9.27940864 C6.73342491,9.50965837 7.05103659,9.64469204 7.20704377,9.86732448 L7.20704377,9.57613648 C7.22268755,9.55917071 6.74792052,9.60025788 6.71333199,9.60833682 C6.52144459,9.65334804 6.3474973,9.72005699 6.17182776,9.79519111 C5.91018921,9.90702669 5.9541066,10.2747338 6.25750971,10.3226303 C6.32424692,10.3330175 7.11719971,10.4120757 7.04830969,10.328401 L7.04830969,10.0370976 C6.91842331,10.2062936 6.69453076,10.355754 6.52833359,10.5026752 C6.30085302,10.7034945 6.51857417,11.079973 6.87737634,10.9848724 C7.2347433,10.890118 7.59211026,10.7953636 7.94962074,10.7006092 C8.38621122,10.5848496 8.19920353,10.0274029 7.75873799,10.1442012 C7.40137103,10.2388402 7.04400407,10.33371 6.68663711,10.4284644 C6.80288901,10.5891199 6.91942796,10.7498907 7.03567986,10.9106616 C7.24694258,10.7240381 7.50255324,10.543647 7.6680328,10.328401 C7.73218663,10.2448417 7.73634873,10.1204261 7.6680328,10.0370976 C7.4039544,9.71567128 6.86761692,9.83212339 6.44839247,9.76610693 C6.47695312,9.94188153 6.50551377,10.1176561 6.53407443,10.2935462 C6.97669278,10.1042682 7.51647476,10.2027158 7.82662336,9.86732448 C7.90182829,9.78618886 7.88446227,9.65877247 7.82662336,9.57613648 C7.67190786,9.35511983 7.34941647,9.21235346 7.21508094,8.98822064 C7.19642323,9.10478817 7.17776552,9.2213557 7.1591078,9.33780782 C7.2147939,9.28968043 8.10318807,9.53712675 8.25187569,9.54416697 C8.47462008,9.55466959 8.67267887,9.35015705 8.5979045,9.17888357 C8.45725405,8.85711102 8.31646008,8.53533848 8.17595315,8.21345051 C8.00014009,8.32205452 7.82447055,8.43065853 7.648801,8.53926253 C7.94675033,8.69980257 8.18628665,8.8861952 8.40816992,9.11032801 C8.69578573,9.40070812 9.20054863,8.98995184 8.9156597,8.70222625" id="Fill-7" fill="#F07789"></path>
                        <path d="M13,13.9977566 C12.8698774,10.9402398 11.2598314,9.13256957 9.2711591,9.00594608 C7.28264769,8.87947719 6.17813359,10.794445 7.737353,12.4598764 C9.29673326,14.1251532 13,13.9977566 13,13.9977566" id="Fill-9" fill="#8AC148"></path>
                        <path d="M8.14431003,9.53702639 C8.94683362,9.97568525 9.79453509,10.3210959 10.4901572,10.924324 C10.7723724,11.1692159 11.1889477,10.7625245 10.9050897,10.5163632 C10.1679274,9.87712838 9.29077229,9.50344319 8.44037188,9.03881795 C8.11004524,8.85820729 7.81386605,9.35641573 8.14431003,9.53702639" id="Fill-11" fill="#9ECC62"></path>
                        <path d="M7.08521498,10.5277286 C8.07798093,11.6408321 9.85647092,12.6460492 11.4631161,12.9875662 C12.0019427,13.102094 12.2319317,12.3907232 11.6925876,12.2760478 C10.3214525,11.9845629 8.68030035,11.1086323 7.82987571,10.1553659 C7.49774598,9.78270791 6.74808174,10.1499051 7.08521498,10.5277286" id="Fill-13" fill="#9ECC62"></path>
                        <path d="M19,3 C14.5817756,3 11,6.31214155 11,10.3977645 L11,51 L27,51 L27,10.3977645 C27,6.31214155 23.4182244,3 19,3" id="Fill-15" fill="#8AC148"></path>
                        <path d="M23.0339581,5.43662592 C23.4509361,6.25860001 23.5768523,7.16114842 23.681336,8.03166999 C23.8399752,9.35346577 23.8883898,10.6827973 23.9147978,12.0092304 C23.9878981,15.6927525 23.8627473,19.3781586 23.7865852,23.061101 C23.618952,31.1528794 23.8323207,39.2356729 23.9354649,47.3265819 C23.9792868,50.764903 24.0378436,54.2204693 23.6974105,57.6519792 C23.6512922,58.1171655 24.608294,58.1148469 24.6542209,57.6519792 C25.3410195,50.7311371 24.8115206,43.7208806 24.7009133,36.790329 C24.5736575,28.8046305 24.9678634,20.8234244 24.8840468,12.8393199 C24.867781,11.2862352 24.830274,9.72909286 24.6555604,8.18093539 C24.5449532,7.20187034 24.4255432,6.16875093 23.9565147,5.24403008 C23.7379792,4.81318929 22.8125521,5.00027825 23.0339581,5.43662592" id="Fill-17" fill="#9ECC62"></path>
                        <path d="M21.0301569,3.54494911 C21.1643203,3.91620032 21.2200417,4.62461266 21.2593141,5.12244314 C21.3405317,6.15291338 21.3754861,7.19071948 21.4031413,8.22622413 C21.4869291,11.3800615 21.4760315,14.5393647 21.457629,17.6946405 C21.4083844,26.1678273 21.2408088,34.6388566 21.1347118,43.1108928 C21.0781679,47.6241626 21.0320075,52.1385832 21.0451668,56.6525722 C21.0464005,57.1153057 21.5604362,57.1163126 21.5592025,56.6525722 C21.5345288,48.1857143 21.6934686,39.7184248 21.8159119,31.2540122 C21.9238594,23.7813768 22.0971923,16.2864462 21.9314672,8.81309161 C21.9043261,7.59476623 21.8701941,6.37255717 21.7762284,5.16012923 C21.7257501,4.50795837 21.6893563,3.77811386 21.4739754,3.18204062 C21.3248022,2.7687881 20.8811894,3.13241579 21.0301569,3.54494911" id="Fill-19" fill="#9ECC62"></path>
                        <path d="M18.0820179,3.34770904 C17.828841,17.9554847 18.2401062,32.5603803 18.2673375,47.1678679 C18.2751388,51.3296482 18.2473188,55.4912846 18.1659195,59.652345 C18.1569406,60.115885 18.8929199,60.115885 18.9018988,59.652345 C19.1848093,45.1890026 18.7697169,30.7265242 18.7312988,16.2631819 C18.7199647,11.9578323 18.7433689,7.65248265 18.8179972,3.34770904 C18.826093,2.88416899 18.0901136,2.88402499 18.0820179,3.34770904" id="Fill-21" fill="#9ECC62"></path>
                        <path d="M16.1244484,3.23899368 C15.2878737,4.9356115 15.3152938,7.02968573 15.2075346,8.82606238 C15.0082586,12.1516917 15.0140221,15.4859333 15.0341069,18.8144333 C15.0863273,27.4766577 15.3627986,36.1368726 15.362624,44.799384 C15.3624493,49.4184332 15.3011471,54.0410709 15.0007487,58.6543785 C14.9708835,59.1158528 15.8443094,59.114561 15.8739999,58.6543785 C16.426244,50.1760262 16.2592784,41.6678179 16.1193835,33.1821452 C15.9922381,25.4754525 15.6825832,17.746942 16.0186103,10.0413977 C16.0779914,8.67563468 16.1592038,7.307288 16.3417133,5.94827129 C16.4548867,5.10742635 16.5766179,4.22036221 16.9664372,3.42975553 C17.1774147,3.00186909 16.3329808,2.81570045 16.1244484,3.23899368" id="Fill-23" fill="#9ECC62"></path>
                        <path d="M14.2034763,5.16415908 C13.3324217,6.2930305 13.349079,8.06225336 13.2370213,9.35039057 C13.00096,12.0680599 12.992379,14.8014556 13.0026425,17.5249865 C13.0315824,25.1836127 13.3716251,32.8405233 13.6196325,40.4955754 C13.7618077,44.8812465 13.8905226,49.2674896 13.9366243,53.6547333 C13.9415037,54.1145168 14.7827772,54.1156606 14.7778978,53.6547333 C14.6957895,45.8554271 14.3690389,38.0594091 14.1205267,30.2631052 C13.9123957,23.730634 13.6012927,17.15756 13.986596,10.6258037 C14.0522153,9.51694771 14.1323046,8.40108634 14.3338737,7.30309591 C14.4410519,6.71907366 14.5391444,6.031257 14.9298318,5.5248661 C15.2276426,5.13913977 14.4994363,4.78057727 14.2034763,5.16415908" id="Fill-25" fill="#9ECC62"></path>
                        <path d="M11.1575448,7.26373238 C10.3170876,12.1992783 10.394361,17.282017 10.319345,22.2562902 C10.2844417,24.5633304 10.2712444,26.8706617 10.2399878,29.1778474 C10.2043899,31.8238242 10.0149397,34.4649964 10.0013952,37.1118467 C9.97638982,41.9692101 10.287741,46.8240984 10.9168684,51.6524891 C10.9769507,52.1132856 11.8458862,52.1183813 11.7851093,51.6524891 C11.2299561,47.3923413 10.9212096,43.1115196 10.8743246,38.8258934 C10.842026,35.8603437 11.0436316,32.9049853 11.0964206,29.9419107 C11.1841129,25.0430538 11.1710893,20.1439057 11.3657489,15.2465047 C11.468896,12.6529409 11.556762,10.0296764 11.9948763,7.45722325 C12.0728444,6.99904735 11.2363811,6.80104315 11.1575448,7.26373238" id="Fill-27" fill="#9ECC62"></path>
                        <path d="M25.0182411,7.44552642 C26.1106763,10.7356197 25.7950208,14.3665051 25.7662945,17.7542354 C25.7515973,19.4863188 25.7163575,21.2185465 25.6600739,22.9500531 C25.6049595,24.6508408 25.4442925,26.3723962 25.660575,28.0690015 C25.7562737,28.8199556 25.9468361,29.5567761 26.082451,30.3022499 C26.2616565,31.2864079 26.2364375,32.265374 26.1532647,33.2557334 C26.070259,34.2437854 25.9795707,35.2306835 25.9136004,36.2198892 C25.7525994,38.6409122 25.6445417,41.0651079 25.5850849,43.4894479 C25.5264631,45.8713872 25.4599918,48.2778438 25.6974849,50.6543027 C25.7434136,51.1132111 26.5789821,51.1172493 26.5325524,50.6543027 C26.0779417,46.1058891 26.4244947,41.4395033 26.7057454,36.8900801 C26.7621959,35.9781764 26.824826,35.0664168 26.9061616,34.1558111 C27.0589789,32.4406014 27.0491251,30.8694675 26.6955575,29.1747371 C26.3408209,27.474382 26.391426,25.7916218 26.4557262,24.0730951 C26.5225316,22.2950054 26.5676252,20.5161946 26.5908401,18.7372396 C26.6162261,16.7813265 26.6214036,14.8245481 26.5874998,12.8686351 C26.5547652,10.9757462 26.4306742,9.08271306 25.8234131,7.2538579 C25.6756062,6.80850621 24.8694321,6.99786721 25.0182411,7.44552642" id="Fill-29" fill="#9ECC62"></path>
                        <path d="M26.0015,7.002 L26.0015,7 C26.001,7 26.0005,7 26,7 L26.0015,7.002 Z" id="Fill-31" fill="#F07789"></path>
                        <path d="M28.6816774,12.9984818 C28.8051338,12.9935785 28.9036302,12.961628 28.9813081,12.9072171 C28.987576,12.9029465 28.9939559,12.8986758 29,12.8939307 C28.7407753,12.0470825 27.1765847,7.09569353 26,7 L26,7.00063268 C26.0411894,9.25172416 26.4389807,13.087374 28.6816774,12.9984818" id="Fill-33" fill="#F07789"></path>
                        <path d="M30.6865515,13 C32.4788578,12.1430996 26,6 26,6 C26,6 26.0787714,7.14307839 26.1047418,8.0157208 C28.6527715,8.93336162 28.6938771,11.9244935 30.6865515,13" id="Fill-35" fill="#EA5765"></path>
                        <path d="M26.0025,7.0015 C26.002,7.001 26.0015,7.0005 26.0015,7 C26.001,7 26.0005,7 26,7.0005 L26.0025,7.0015 Z" id="Fill-37" fill="#F07789"></path>
                        <path d="M31.6942858,9.6305626 C31.8287886,9.56010416 31.9240016,9.48513541 31.9853739,9.40650965 C31.9902493,9.40017083 31.9955548,9.39395391 32,9.38749318 C31.3284898,8.96340166 27.3486127,6.51052164 26,7.08735438 C26,7.08747628 26.0001434,7.08759818 26.0002868,7.08772008 C27.0664149,8.56771294 29.2462778,10.9112483 31.6942858,9.6305626" id="Fill-39" fill="#F07789"></path>
                        <path d="M31.927648,11 C32.829645,9.12343727 25,6 25,6 C25,6 25.6235104,7.1834461 26.0742885,8.10508898 C28.4123422,7.72709222 29.9221332,10.9119356 31.927648,11" id="Fill-41" fill="#EA5765"></path>
                        <path d="M26.0025,7.001 C26.002,7.001 26.0015,7.0005 26.001,7 C26.0005,7.0005 26.0005,7.001 26,7.001 L26.0025,7.001 Z" id="Fill-43" fill="#F07789"></path>
                        <path d="M32.8697232,6.56814528 C32.950035,6.43261389 32.990804,6.31189315 32.9984673,6.2038872 C32.9990804,6.19522437 32.9998467,6.18642182 33,6.17789871 C32.1118191,6.0840048 26.8857287,5.58812757 26,6.81783043 C26.0001533,6.81797016 26.0003065,6.81797016 26.0004598,6.81810988 C27.9176738,7.76780768 31.4089376,9.03202215 32.8697232,6.56814528" id="Fill-45" fill="#F07789"></path>
                        <path d="M31.9999079,6.91328279 C32.0313527,4.85527642 24,6.91863948 24,6.91863948 C24,6.91863948 25.0129925,7.51496021 25.7719288,8 C27.6465674,6.31696205 30.2272445,8.02142677 31.9999079,6.91328279" id="Fill-47" fill="#EA5765"></path>
                        <path d="M26.0025,7 C26.002,7 26.001,7 26.0005,7 C26.0005,7.0005 26.0005,7.001 26,7.0015 L26.0025,7 Z" id="Fill-49" fill="#F07789"></path>
                        <path d="M31.9984818,3.31822252 C31.9935785,3.19476158 31.9617861,3.09626147 31.9073752,3.0185807 C31.9029464,3.01231251 31.8986758,3.00593239 31.8940888,3 C31.0470824,3.25912245 26.0958517,4.82337139 26,6 C26.0001582,6 26.0004745,6 26.0006327,5.99988807 C28.2518823,5.95880904 32.0873739,5.56100291 31.9984818,3.31822252" id="Fill-51" fill="#F07789"></path>
                        <path d="M31,3.3134485 C30.1430996,1.52114224 24,8 24,8 C24,8 25.1430784,7.92122865 26.0155723,7.89508619 C26.9332131,5.34722851 29.9244935,5.30595094 31,3.3134485" id="Fill-53" fill="#EA5765"></path>
                        <path d="M26.0015,7 C26.001,7 26.0005,7.0005 26,7.001 C26,7.0015 26,7.002 26.0005,7.0025 L26.0015,7 Z" id="Fill-55" fill="#F07789"></path>
                        <path d="M28.6305668,1.30571422 C28.5601092,1.17106804 28.4851413,1.07599837 28.4065164,1.0146261 C28.4001777,1.00960734 28.3939608,1.00444519 28.3875002,1 C27.9632916,1.67136678 25.5104395,5.65124394 26.0873875,7 C26.0875094,6.99985661 26.0876313,6.99971321 26.0877532,6.99971321 C27.5677292,5.93358507 29.9112379,3.75372225 28.6305668,1.30571422" id="Fill-57" fill="#F07789"></path>
                        <path d="M30,1.07232798 C28.1233683,0.170493895 25,8 25,8 C25,8 26.1833058,7.37635383 27.1051664,6.92558366 C26.7269719,4.58757147 29.9119323,3.07780722 30,1.07232798" id="Fill-59" fill="#EA5765"></path>
                        <path d="M28.001,7 C28.0005,7.0005 28.0005,7.001 28,7.0015 C28.0005,7.002 28.001,7.002 28.001,7.0025 L28.001,7 Z" id="Fill-61" fill="#F07789"></path>
                        <path d="M26.5681327,0.130276756 C26.4326043,0.0499649676 26.3118862,0.00904273953 26.2040224,0.00168593449 C26.19522,0.000919600631 26.1865574,0.000153266772 26.1778948,0 C26.0840029,0.888180942 25.5881367,6.11411806 26.8178123,7 C26.817952,6.99984673 26.817952,6.99969347 26.8180917,6.9995402 C27.7679082,5.08232615 29.0319549,1.59121562 26.5681327,0.130276756" id="Fill-63" fill="#F07789"></path>
                        <g id="Group-67" transform="translate(25.000000, 0.000000)">
                            <mask id="mask-2" fill="white">
                                <use xlink:href="#path-1"></use>
                            </mask>
                            <g id="Clip-66"></g>
                            <path d="M0.953276923,0.0926285714 C-0.878876923,0.0620571429 0.958046154,7.87034286 0.958046154,7.87034286 C0.958046154,7.87034286 1.48896923,6.88548571 1.92081538,6.14762857 C0.422507692,4.32505714 1.93989231,1.81605714 0.953276923,0.0926285714" id="Fill-65" fill="#EA5765" mask="url(#mask-2)"></path>
                        </g>
                        <path d="M28,7 L28,7.002 C28.0005,7.002 28.001,7.002 28.0015,7.002 L28,7 Z" id="Fill-68" fill="#F07789"></path>
                        <path d="M23.3183226,1.00151824 C23.1948662,1.00642154 23.0963698,1.03821394 23.01858,1.09262481 C23.012424,1.0970536 23.0060441,1.10132422 23,1.10591118 C23.2592247,1.95291756 24.8234153,6.9041483 26,7 L26,6.99936732 C25.9588106,4.74811769 25.5610193,0.912626066 23.3183226,1.00151824" id="Fill-70" fill="#F07789"></path>
                        <path d="M23.3134485,1 C21.5211422,1.85690039 28,8 28,8 C28,8 27.9212286,6.85692161 27.8950862,5.9842792 C25.3472285,5.06663838 25.3061229,2.07550652 23.3134485,1" id="Fill-72" fill="#EA5765"></path>
                        <path d="M26,6 C26,6.0005 26.0005,6.001 26.001,6.0015 L26.0025,6.001 L26,6 Z" id="Fill-74" fill="#F07789"></path>
                        <path d="M21.3058503,3.36942661 C21.1712073,3.43988299 21.0761399,3.51484955 21.0147691,3.59347302 C21.0097505,3.59981166 21.0045885,3.6060284 21,3.61248893 C21.6714941,4.03656807 25.6512762,6.48937646 27,5.91268246 C26.9998566,5.91243867 26.9997132,5.91231677 26.9997132,5.91219488 C25.9334672,4.43224524 23.7536564,2.08877832 21.3058503,3.36942661" id="Fill-76" fill="#F07789"></path>
                        <path d="M21.072328,3 C20.1704939,4.87656273 28,8 28,8 C28,8 27.3765007,6.8165539 26.9257305,5.89491102 C24.5875715,6.27290778 23.0779541,3.08806442 21.072328,3" id="Fill-78" fill="#EA5765"></path>
                        <path d="M26,6 C26.0005,6 26.0015,6.0005 26.002,6.001 C26.002,6.0005 26.0025,6 26.003,6 L26,6 Z" id="Fill-80" fill="#F07789"></path>
                        <path d="M20.1304272,6.43185472 C20.0501171,6.56752583 20.0091958,6.68810685 20.0016859,6.7961128 C20.0010728,6.80477563 20.0003065,6.81357818 20,6.82210129 C20.8881615,6.9159952 26.1141375,7.41187243 27,6.18216957 C26.9998467,6.18202984 26.9995402,6.18202984 26.9993869,6.18189012 C25.0823681,5.23219232 21.5911808,3.96797785 20.1304272,6.43185472" id="Fill-82" fill="#F07789"></path>
                        <path d="M20.0000921,7.08671721 C19.9686479,9.14472358 28,7.08136052 28,7.08136052 C28,7.08136052 26.9868791,6.48503979 26.2281038,6 C24.3534996,7.68303795 21.772723,5.97857323 20.0000921,7.08671721" id="Fill-84" fill="#EA5765"></path>
                        <path d="M26,6.0015 C26.0005,6.0015 26.001,6.0015 26.002,6.0015 L26.002,6 L26,6.0015 Z" id="Fill-86" fill="#F07789"></path>
                        <path d="M21.0015182,8.68177748 C21.0062634,8.80523842 21.0382139,8.90385046 21.0926248,8.9814193 C21.0970536,8.98768749 21.1013242,8.99406761 21.1059112,9 C21.9529176,8.74087755 26.9041483,7.17662861 27,6 C26.9996837,6.00011193 26.9995255,6.00011193 26.9993673,6.00011193 C24.7481177,6.04119096 20.9126261,6.43899709 21.0015182,8.68177748" id="Fill-88" fill="#F07789"></path>
                        <path d="M21,10.6865515 C21.8569004,12.4788578 28,6 28,6 C28,6 26.8569216,6.07877135 25.9842792,6.10491381 C25.0666384,8.65277149 22.075358,8.69404906 21,10.6865515" id="Fill-90" fill="#EA5765"></path>
                        <path d="M26,6.0025 C26.0005,6.0025 26.001,6.002 26.0015,6.0015 C26.0015,6.001 26.001,6.0005 26.001,6 L26,6.0025 Z" id="Fill-92" fill="#F07789"></path>
                        <path d="M22.3694374,11.6942858 C22.4398959,11.828932 22.5148646,11.9240016 22.5934904,11.9853739 C22.5998292,11.9903927 22.6060461,11.9955548 22.6123849,12 C23.0365984,11.3286332 25.4894785,7.34875606 24.9126458,6 C24.9125239,6.00014339 24.912402,6.00028679 24.9122801,6.00028679 C23.4322871,7.06641493 21.0887517,9.24627775 22.3694374,11.6942858" id="Fill-94" fill="#F07789"></path>
                        <path d="M23,12.927672 C24.8765627,13.8295061 28,6 28,6 C28,6 26.8165539,6.62364617 25.894911,7.07441634 C26.2729078,9.41242853 23.0880644,10.9221928 23,12.927672" id="Fill-96" fill="#EA5765"></path>
                        <path d="M26.0005,7.0025 C26.0005,7.002 26.001,7.0015 26.0015,7.001 C26.001,7.0005 26.0005,7.0005 26,7 L26.0005,7.0025 Z" id="Fill-98" fill="#F07789"></path>
                        <path d="M25.4318058,13.8697232 C25.5674733,13.950035 25.6881909,13.9909573 25.7960543,13.9984673 C25.8048566,13.9990804 25.8135192,13.9998467 25.8220421,14 C25.9159335,13.1118191 26.4119374,7.88588194 25.1822669,7 C25.1821272,7.00015327 25.1819875,7.00030653 25.1819875,7.0004598 C24.232175,8.91782712 22.9679938,12.4089376 25.4318058,13.8697232" id="Fill-100" fill="#F07789"></path>
                        <path d="M27.0866929,13.9999079 C29.1446533,14.0313527 27.0815092,6 27.0815092,6 C27.0815092,6 26.485029,7.01299253 26,7.77192876 C27.6830004,9.64656738 25.9785737,12.2272445 27.0866929,13.9999079" id="Fill-102" fill="#EA5765"></path>
                        <path d="M26,7 C26.1013628,9.09718681 26.6084018,12.0738249 28.6796937,11.998602 C28.8039194,11.9939279 28.9030296,11.9645691 28.9811916,11.914323 C28.9874986,11.9102333 28.9939182,11.9062895 29,11.9020537 C27.6951233,10.8444043 27.6682059,7.90267548 26,7" id="Fill-104" fill="#F07789"></path>
                        <path d="M26.001,7.036 L26.002,7.0365 C26.0015,7.0245 26.001,7.0125 26,7 C26.0005,7.012 26.001,7.0245 26.001,7.036" id="Fill-106" fill="#EA5765"></path>
                        <path d="M27,6.5 C27,7.32843251 26.3284066,8 25.5000579,8 C24.6715934,8 24,7.32843251 24,6.5 C24,5.67156749 24.6715934,5 25.5000579,5 C26.3284066,5 27,5.67156749 27,6.5" id="Fill-108" fill="#F3BA2C"></path>
                        <path d="M27,5.50013755 C27,5.77634113 26.7764026,6 26.500275,6 C26.2241474,6 26,5.77634113 26,5.50013755 C26,5.22393398 26.2241474,5 26.500275,5 C26.7764026,5 27,5.22393398 27,5.50013755" id="Fill-110" fill="#FFCF46"></path>
                        <path d="M27,5.5 C27,5.77612761 26.7764026,6 26.500275,6 C26.2238724,6 26,5.77612761 26,5.5 C26,5.22387239 26.2238724,5 26.500275,5 C26.7764026,5 27,5.22387239 27,5.5" id="Fill-112" fill="#FFCF46"></path>
                        <path d="M27,6.5 C27,6.77612761 26.7764026,7 26.500275,7 C26.2238724,7 26,6.77612761 26,6.5 C26,6.22387239 26.2238724,6 26.500275,6 C26.7764026,6 27,6.22387239 27,6.5" id="Fill-114" fill="#FFCF46"></path>
                        <path d="M27,7.50013755 C27,7.77634113 26.7763411,8 26.5001376,8 C26.223934,8 26,7.77634113 26,7.50013755 C26,7.22393398 26.223934,7 26.5001376,7 C26.7763411,7 27,7.22393398 27,7.50013755" id="Fill-116" fill="#FFCF46"></path>
                        <path d="M25,6.49986245 C25,6.77606602 24.7761276,7 24.5,7 C24.2238724,7 24,6.77606602 24,6.49986245 C24,6.22365887 24.2238724,6 24.5,6 C24.7761276,6 25,6.22365887 25,6.49986245" id="Fill-118" fill="#FFCF46"></path>
                        <path d="M26,5.49986245 C26,5.77606602 25.7763411,6 25.5001376,6 C25.223934,6 25,5.77606602 25,5.49986245 C25,5.22365887 25.223934,5 25.5001376,5 C25.7763411,5 26,5.22365887 26,5.49986245" id="Fill-120" fill="#FFCF46"></path>
                        <path d="M27,6.50013755 C27,6.77634113 26.7764026,7 26.500275,7 C26.2241474,7 26,6.77634113 26,6.50013755 C26,6.22393398 26.2241474,6 26.500275,6 C26.7764026,6 27,6.22393398 27,6.50013755" id="Fill-122" fill="#FFCF46"></path>
                        <path d="M27,6.50013755 C27,6.77634113 26.7764026,7 26.500275,7 C26.2238724,7 26,6.77634113 26,6.50013755 C26,6.22393398 26.2238724,6 26.500275,6 C26.7764026,6 27,6.22393398 27,6.50013755" id="Fill-124" fill="#FFCF46"></path>
                        <path d="M29,5.49986245 C29,5.77606602 28.7763411,6 28.5001376,6 C28.223934,6 28,5.77606602 28,5.49986245 C28,5.22365887 28.223934,5 28.5001376,5 C28.7763411,5 29,5.22365887 29,5.49986245" id="Fill-126" fill="#FFCF46"></path>
                        <path d="M26,7.50013755 C26,7.77634113 25.7761276,8 25.5,8 C25.2238724,8 25,7.77634113 25,7.50013755 C25,7.22393398 25.2238724,7 25.5,7 C25.7761276,7 26,7.22393398 26,7.50013755" id="Fill-128" fill="#FFCF46"></path>
                        <path d="M26,7.5 C26,7.77612761 25.7761276,8 25.5,8 C25.2238724,8 25,7.77612761 25,7.5 C25,7.22387239 25.2238724,7 25.5,7 C25.7761276,7 26,7.22387239 26,7.5" id="Fill-130" fill="#FFCF46"></path>
                        <path d="M25,6.50013755 C25,6.77634113 24.7764026,7 24.500275,7 C24.2241474,7 24,6.77634113 24,6.50013755 C24,6.22393398 24.2241474,6 24.500275,6 C24.7764026,6 25,6.22393398 25,6.50013755" id="Fill-132" fill="#FFCF46"></path>
                        <path d="M26,6.5 C26,6.77612761 25.7763411,7 25.5001376,7 C25.223934,7 25,6.77612761 25,6.5 C25,6.22387239 25.223934,6 25.5001376,6 C25.7763411,6 26,6.22387239 26,6.5" id="Fill-134" fill="#FFCF46"></path>
                        <path d="M25,7.50013755 C25,7.77634113 24.7761276,8 24.5,8 C24.2238724,8 24,7.77634113 24,7.50013755 C24,7.22393398 24.2238724,7 24.5,7 C24.7761276,7 25,7.22393398 25,7.50013755" id="Fill-136" fill="#FFCF46"></path>
                        <path d="M7.36484739,38 C7.36484739,38 4.24912824,36.5836613 1,32.140054 C1,32.140054 6.00739529,28.2705815 9.12561219,31.4936985 C11.0296301,33.4619608 23.972515,34.1731336 28.7404204,30.1217819 C30.1544391,28.92015 31,37.0067888 31,37.0067888 L7.36484739,38 Z" id="Fill-140" fill="#716558"></path>
                        <path d="M0,30 L5.89274512,58.5216892 C5.89274512,58.5216892 8.70531222,62 19.3749711,62 C32.3213857,62 35,58.5216892 35,58.5216892 C13.928588,48.4347888 9.28577443,45.3043665 0,30" id="Fill-142" fill="#E6E7EA"></path>
                        <path d="M0,30 C9.10606337,45.5610219 13.6590228,48.7439416 34.3226319,59 L38,30 C38,30 35.7817582,34.7743796 19,34.7743796 C2.80177672,34.7743796 0,30 0,30" id="Fill-144" fill="#F4F6FB"></path>
                    </g>
                </g>
            </g>
        </g>
    </g>
</svg>